<svg width="30" height="34" viewBox="0 0 30 34" fill="none" xmlns="http://www.w3.org/2000/svg">
<path fill-rule="evenodd" clip-rule="evenodd" d="M23.9014 21.3015L20.7748 20.9012C20.024 20.8045 19.2854 21.0944 18.7561 21.6881L16.4913 24.2283C13.0078 22.2403 10.1521 19.0512 8.37955 15.1304L10.6567 12.5764C11.186 11.9827 11.4445 11.1544 11.3584 10.3123L11.0014 6.83324C10.8537 5.43887 9.80741 4.38965 8.55188 4.38965H6.4224C5.03147 4.38965 3.87441 5.68738 3.96058 7.24741C4.61296 19.0374 13.0201 28.4528 23.5198 29.1845C24.9107 29.2812 26.0678 27.9834 26.0678 26.4234V24.035C26.0801 22.6407 25.1446 21.4672 23.9014 21.3015Z" fill="white"/>
</svg>
