<svg width="31" height="32" viewBox="0 0 31 32" fill="none" xmlns="http://www.w3.org/2000/svg">
<path d="M15.4282 4.17896C18.4367 4.17896 18.8142 4.19248 19.9956 4.24927C21.1747 4.30592 21.9804 4.50277 22.6851 4.79126C23.4135 5.08945 24.0311 5.48917 24.647 6.13794C25.2628 6.78669 25.6422 7.43704 25.9253 8.20435C26.1991 8.94663 26.3862 9.79524 26.4399 11.0374C26.4939 12.2821 26.5063 12.6795 26.5063 15.8489C26.5063 19.0182 26.4939 19.4157 26.4399 20.6604C26.3862 21.9025 26.1991 22.7511 25.9253 23.4934C25.6422 24.2607 25.2628 24.9111 24.647 25.5598C24.0311 26.2086 23.4135 26.6083 22.6851 26.9065C21.9804 27.1949 21.1747 27.3918 19.9956 27.4485C18.8142 27.5053 18.4367 27.5188 15.4282 27.5188C12.4197 27.5188 12.0424 27.5053 10.8608 27.4485C9.68169 27.3918 8.87604 27.195 8.17139 26.9065C7.44295 26.6083 6.82535 26.2085 6.20947 25.5598C5.5938 24.9112 5.21516 24.2606 4.93213 23.4934C4.65825 22.7511 4.47029 21.9025 4.4165 20.6604C4.36259 19.4157 4.3501 19.0182 4.3501 15.8489C4.3501 12.6795 4.36259 12.2821 4.4165 11.0374C4.47029 9.79524 4.65825 8.94663 4.93213 8.20435C5.21516 7.43718 5.59379 6.78659 6.20947 6.13794C6.82536 5.4892 7.44294 5.08944 8.17139 4.79126C8.87604 4.50275 9.68169 4.30592 10.8608 4.24927C12.0424 4.19248 12.4197 4.17896 15.4282 4.17896ZM15.4282 6.28149C12.4703 6.28149 12.1198 6.29371 10.9517 6.34985C9.87196 6.40173 9.28537 6.59144 8.89502 6.75122C8.37792 6.96292 8.00824 7.21588 7.62061 7.62427C7.23302 8.03252 6.99342 8.42152 6.79248 8.96606C6.64077 9.37726 6.45991 9.99536 6.41064 11.1331C6.35735 12.3636 6.34619 12.7329 6.34619 15.8489C6.34619 18.9649 6.35735 19.3341 6.41064 20.5647C6.45991 21.7024 6.64077 22.3205 6.79248 22.7317C6.99342 23.2762 7.23307 23.6652 7.62061 24.0735C8.00824 24.4819 8.37792 24.7348 8.89502 24.9465C9.28537 25.1063 9.87195 25.296 10.9517 25.3479C12.1197 25.404 12.4701 25.4163 15.4282 25.4163C18.3863 25.4163 18.7369 25.404 19.9048 25.3479C20.9849 25.296 21.572 25.1063 21.9624 24.9465C22.4793 24.7349 22.8483 24.4818 23.2358 24.0735C23.6234 23.6652 23.863 23.2762 24.064 22.7317C24.2157 22.3205 24.3965 21.7024 24.4458 20.5647C24.4991 19.3341 24.5103 18.9649 24.5103 15.8489C24.5103 12.7329 24.4991 12.3636 24.4458 11.1331C24.3965 9.99537 24.2157 9.37726 24.064 8.96606C23.863 8.42153 23.6234 8.03252 23.2358 7.62427C22.8483 7.21599 22.4793 6.96289 21.9624 6.75122C21.572 6.5914 20.9849 6.40174 19.9048 6.34985C18.7367 6.29371 18.3861 6.28149 15.4282 6.28149ZM15.4282 9.85669C18.57 9.85669 21.1167 12.5392 21.1167 15.8489C21.1167 19.1585 18.5701 21.842 15.4282 21.842C12.2864 21.842 9.73975 19.1585 9.73975 15.8489C9.73978 12.5392 12.2864 9.85675 15.4282 9.85669ZM15.4282 11.9592C13.3888 11.9593 11.7359 13.7006 11.7358 15.8489C11.7358 17.9972 13.3888 19.7385 15.4282 19.7385C17.4677 19.7385 19.1206 17.9972 19.1206 15.8489C19.1206 13.7005 17.4676 11.9592 15.4282 11.9592ZM21.3423 8.21899C22.0763 8.21926 22.6714 8.84615 22.6714 9.61938C22.6714 10.3926 22.0763 11.0195 21.3423 11.0198C20.6081 11.0198 20.0122 10.3928 20.0122 9.61938C20.0122 8.84599 20.6081 8.21899 21.3423 8.21899Z" fill="white"/>
</svg>
