<svg width="23" height="25" viewBox="0 0 23 25" fill="none" xmlns="http://www.w3.org/2000/svg">
<path d="M22.1183 11.3168C21.8835 8.24095 20.6678 5.38758 18.6953 3.28312C16.7109 1.16623 14.1365 0 11.4441 0C5.53494 0 0.727038 5.57411 0.727038 12.425C0.727038 14.7243 1.27408 16.9642 2.3098 18.9152L0 24.8431L7.39541 23.9297C8.68141 24.5405 10.0425 24.85 11.4429 24.85C11.8112 24.85 12.189 24.8279 12.568 24.7823C12.9017 24.7408 13.239 24.6801 13.5704 24.6027C18.5189 23.4434 22.1314 18.3515 22.16 12.4913V12.425C22.16 12.0519 22.1457 11.6788 22.1171 11.3182L22.1183 11.3168ZM7.68026 21.3278L3.58866 21.8336L4.8103 18.6956L4.56597 18.3156C4.54809 18.2879 4.53022 18.2603 4.50996 18.2285C3.44921 16.5303 2.88903 14.5239 2.88903 12.4264C2.88903 6.95728 6.72678 2.50793 11.4441 2.50793C15.8635 2.50793 19.6095 6.50544 19.9706 11.6084C19.9896 11.882 20.0004 12.1569 20.0004 12.4278C20.0004 12.5051 19.9992 12.5811 19.998 12.6627C19.9074 17.2378 17.1507 21.1234 13.2939 22.1127C12.9995 22.1887 12.6979 22.2467 12.3976 22.284C12.0853 22.3255 11.7647 22.3462 11.4465 22.3462C10.313 22.3462 9.21179 22.092 8.1713 21.589C8.05569 21.5351 7.94246 21.4771 7.83639 21.4177L7.68146 21.3306L7.68026 21.3278Z" fill="white"/>
<path d="M13.8969 18.476C9.54312 18.476 6.00095 14.3679 5.99976 9.32027C6.00095 8.04073 6.8996 7.00024 8.00087 7.00024C8.1141 7.00024 8.22612 7.0113 8.33339 7.03341C8.56937 7.079 8.79345 7.17159 8.99964 7.31115C9.02943 7.33187 9.04969 7.36506 9.05446 7.40375L9.51451 10.7656C9.52047 10.8057 9.50974 10.8444 9.4871 10.8734C9.23324 11.1995 8.90905 11.4344 8.54792 11.5519L8.37392 11.6085L8.43946 11.8033C9.033 13.5554 10.2415 14.9552 11.754 15.6461L11.922 15.7235L11.9709 15.5217C12.0722 15.1031 12.2748 14.7272 12.5561 14.4329C12.5764 14.4108 12.6038 14.3997 12.6312 14.3997C12.6371 14.3997 12.6431 14.3997 12.6503 14.4011L15.55 14.9345C15.5846 14.9414 15.6132 14.9635 15.6311 14.998C15.7503 15.2371 15.8301 15.4982 15.8706 15.7718C15.8897 15.8934 15.898 16.0219 15.898 16.156C15.898 17.4341 15.0006 18.4746 13.8969 18.476Z" fill="white"/>
</svg>
