<svg width="30" height="34" viewBox="0 0 30 34" fill="none" xmlns="http://www.w3.org/2000/svg">
<path fill-rule="evenodd" clip-rule="evenodd" d="M6.3855 12.4369C6.3855 7.0941 10.2383 2.77295 15.0019 2.77295C19.7655 2.77295 23.6183 7.0941 23.6183 12.4369C23.6183 18.1938 18.1776 26.132 15.9497 29.1555C15.4573 29.8181 14.5588 29.8181 14.0664 29.1555C11.8261 26.132 6.3855 18.1938 6.3855 12.4369ZM11.9246 12.4369C11.9246 14.342 13.3032 15.8883 15.0019 15.8883C16.7005 15.8883 18.0792 14.342 18.0792 12.4369C18.0792 10.5317 16.7005 8.98547 15.0019 8.98547C13.3032 8.98547 11.9246 10.5317 11.9246 12.4369Z" fill="white"/>
</svg>
