<svg width="31" height="32" viewBox="0 0 31 32" fill="none" xmlns="http://www.w3.org/2000/svg">
<path d="M11.4709 9.36548C13.2946 9.36548 14.9561 10.0687 16.2063 11.2219C14.734 12.631 14.7819 12.7147 14.2034 13.301C13.4802 12.695 12.6916 12.26 11.4709 12.26C9.16215 12.26 7.3606 14.1575 7.3606 16.4973C7.3607 18.837 9.16222 20.7336 11.4709 20.7336C13.7524 20.7336 14.6795 19.7365 15.2756 17.9055C14.1757 17.9055 11.4757 17.9094 11.4709 17.9094V15.0852H18.2297C18.7003 18.5027 17.28 23.6291 11.4709 23.6292C7.58451 23.6292 4.43395 20.4359 4.43384 16.4973C4.43384 12.5586 7.58445 9.36548 11.4709 9.36548ZM24.1516 12.7551V15.2258H26.5901V16.9915H24.1516V19.5334H22.4094V16.9915H19.9016V15.2258H22.4094V12.7551H24.1516Z" fill="white"/>
</svg>
