<svg width="30" height="32" viewBox="0 0 30 32" fill="none" xmlns="http://www.w3.org/2000/svg">
<path d="M15.8494 27.5188H5.23776C4.56219 27.5188 4.01489 26.9419 4.01489 26.2306V5.46713C4.01489 4.75557 4.56228 4.17896 5.23776 4.17896H24.9485C25.6238 4.17896 26.1713 4.75557 26.1713 5.46713V26.2306C26.1713 26.942 25.6238 27.5188 24.9485 27.5188H19.3025V18.4803H22.1825L22.6137 14.9579H19.3025V12.709C19.3025 11.6892 19.5713 10.9942 20.9596 10.9942L22.7303 10.9934V7.84287C22.4241 7.79994 21.373 7.70404 20.1501 7.70404C17.5972 7.70404 15.8494 9.34559 15.8494 12.3602V14.9579H12.962V18.4803H15.8494V27.5188Z" fill="white"/>
</svg>
