<svg width="31" height="32" viewBox="0 0 31 32" fill="none" xmlns="http://www.w3.org/2000/svg">
<path d="M15.3494 8.06885C15.3494 8.06885 19.9998 8.06841 23.1003 8.31104C23.5331 8.36646 24.4774 8.37178 25.3201 9.32666C25.9779 10.0471 26.1969 11.6742 26.2009 11.7046C26.2009 11.7046 26.4226 13.6446 26.4226 15.5835V17.4019C26.4226 19.3291 26.2037 21.256 26.2009 21.2808C26.2009 21.2808 25.9841 22.9324 25.3201 23.6597C24.4775 24.6144 23.5331 24.6191 23.1003 24.6753C19.9998 24.9179 15.3445 24.9253 15.3445 24.9253C15.3184 24.925 9.57977 24.8679 7.81128 24.6841C7.31823 24.5845 6.21117 24.6145 5.36792 23.6597C4.70394 22.9324 4.48804 21.2808 4.48804 21.2808C4.4851 21.255 4.26636 19.3286 4.26636 17.4019V15.5835C4.26638 13.6446 4.48804 11.7046 4.48804 11.7046C4.49195 11.675 4.7101 10.0474 5.36792 9.32666C6.21125 8.37175 7.15519 8.36646 7.58862 8.31104C10.6799 8.06912 15.312 8.06885 15.3396 8.06885H15.3494ZM13.0564 19.606L19.0427 16.2505L13.0564 12.8716V19.606Z" fill="white"/>
</svg>
