<svg width="31" height="32" viewBox="0 0 31 32" fill="none" xmlns="http://www.w3.org/2000/svg">
<path d="M9.05957 26.2224H4.74121V12.1287H9.05957V26.2224ZM20.8584 11.9929C23.9276 11.9929 26.3389 14.0202 26.3389 18.3855V26.2224H21.4424V18.9285C21.4423 17.0196 20.6755 15.7166 18.9912 15.7166C17.7033 15.7168 16.9868 16.5958 16.6533 17.4431C16.5283 17.7473 16.5479 18.1717 16.5479 18.5955V26.2224H11.6963C11.6963 26.2224 11.7588 13.3045 11.6963 12.1287H16.5479V14.3406C16.8344 13.3735 18.3846 11.9929 20.8584 11.9929ZM6.82031 5.47534C8.41352 5.47534 9.39354 6.5278 9.4248 7.9187C9.42465 9.2841 8.41384 10.3648 6.79102 10.365H6.75977C5.19661 10.365 4.18274 9.28815 4.18262 7.92261C4.18262 6.53046 5.22596 5.47547 6.82031 5.47534Z" fill="white"/>
</svg>
